<?xml version="1.0" encoding="utf-8"?>
<!-- Generator: Adobe Illustrator 18.1.1, SVG Export Plug-In . SVG Version: 6.00 Build 0)  -->
<svg version="1.1" id="Layer_1" xmlns="http://www.w3.org/2000/svg" xmlns:xlink="http://www.w3.org/1999/xlink" x="0px" y="0px"
	 viewBox="0 0 177 34.9" enable-background="new 0 0 177 34.9" xml:space="preserve">
<g>
	<path fill-rule="evenodd" clip-rule="evenodd" fill="#007ABD" d="M65,9.1c-7.8,0-14.1,5.8-14.1,12.9c0,7.1,6.3,12.9,14.1,12.9
		C72.7,34.9,79,29.1,79,22C79,14.9,72.7,9.1,65,9.1z M65,25.4c-1.7,0-3.1-1.5-3.1-3.4c0-1.9,1.4-3.4,3.1-3.4c1.7,0,3.1,1.6,3.1,3.4
		C68,23.9,66.7,25.4,65,25.4z M115.7,9.2c-7.7,0-14.1,5.8-14.1,12.9c0,7.1,6.3,12.9,14.1,12.9c7.8,0,14.1-5.8,14.1-12.9
		C129.7,14.9,123.4,9.2,115.7,9.2z M115.7,25.5c-1.7,0-3.1-1.5-3.1-3.4c0-1.9,1.4-3.4,3.1-3.4c1.7,0,3.1,1.5,3.1,3.4
		C118.7,23.9,117.4,25.5,115.7,25.5z M93.4,9.1c2.4,0,4.7,0.7,6.7,1.9v9.5c-1.1-1.1-3.1-1.8-4.2-1.8c-1.6,0-4,1.5-4,3.4
		c0,1.9,2.4,3.4,4,3.4c1.1,0,3-0.7,4.2-1.8V33c-2,1.2-4.3,1.9-6.7,1.9c-7.2,0-13-5.8-13-12.9C80.4,14.9,86.2,9.1,93.4,9.1z
		 M171.4,15.8v18.6h-10.9V20.5c0.2-2.9-3.6-2.7-3.6,0v13.9h-11.1V20.5c-0.2-2.2-2.5-2.4-3.4-0.6v14.3h-11.3V10.4h11.3v3.1
		c4.3-6.2,11.1-4.6,13.7,0.5c4.8-6.4,12.5-5.5,14.7,0L171.4,15.8z M50,9.5v11.6c-1.6-1-6.7-2.7-8.1,2.7v10.5H30.6V10.4h11.1v3.4
		C44.1,10.7,47.6,9.4,50,9.5z M0,32.5h12.3v1.8H0V32.5z M0,29.3h12.3v1.7H0V29.3z M0,26.2h12.3V28H0V26.2z M12.1,11.6H0V9.7h12.1
		V11.6z M12.1,14.8H0v-1.9h12.1V14.8z M0,22.9h22.6c-1.8,1.6-10,1.8-10.9,1.8H0V22.9z M22.6,1.8H0V0h11.7c0.8-0.1,7.8,0.1,10.4,1.4
		C22.2,1.5,22.4,1.6,22.6,1.8C22.6,1.7,22.6,1.7,22.6,1.8z M26.3,5L0,5.1V3.3l24.6-0.1C25.2,3.8,25.8,4.4,26.3,5z M28.1,8.4H0V6.5
		h27.3C27.6,7.1,27.9,7.7,28.1,8.4z M16.4,9.7h12.2c0.2,0.6,0.2,1.2,0.3,1.9h-11C17.7,11,17.6,10.2,16.4,9.7z M17.9,12.9l11,0
		c0,0.6-0.1,1.3-0.2,1.9l-12.1,0C17.2,14.6,17.8,14,17.9,12.9z M0,16.5h28.1c-0.2,0.7-0.6,1.3-0.9,1.9H0V16.5z M0,19.7l26.3,0
		c-0.5,0.7-1.1,1.2-1.7,1.8L0,21.4V19.7z M177,11.9c0,0.2,0,0.4-0.1,0.6c-0.1,0.2-0.2,0.3-0.3,0.5c-0.2,0.1-0.3,0.2-0.5,0.3
		c-0.2,0.1-0.4,0.1-0.6,0.1v-0.3c0.2,0,0.3,0,0.5-0.1c0.1-0.1,0.3-0.1,0.4-0.3c0.1-0.1,0.2-0.2,0.2-0.4c0.1-0.1,0.1-0.3,0.1-0.5
		c0-0.2,0-0.4-0.1-0.5c-0.1-0.2-0.2-0.3-0.2-0.4c-0.1-0.1-0.2-0.2-0.4-0.2c-0.2,0-0.3-0.1-0.5-0.1l0,0v-0.3l0,0c0.2,0,0.4,0,0.6,0.1
		c0.2,0.1,0.3,0.2,0.5,0.3c0.1,0.1,0.2,0.3,0.3,0.5C177,11.5,177,11.7,177,11.9L177,11.9z M175.4,12.1
		C175.5,12.1,175.5,12.1,175.4,12.1c0.1,0.1,0.1,0.1,0.2,0.2l0.1,0.3c0,0,0,0.1,0,0.1c0,0,0,0,0.1,0c0,0,0,0,0.1,0c0,0,0.1,0,0.1,0
		c0,0,0.1,0,0.1,0c0,0,0,0,0.1,0c0,0,0,0,0,0c0,0,0,0,0,0c0,0,0,0,0-0.1l-0.1-0.2c-0.1-0.1-0.1-0.2-0.2-0.2c-0.1,0-0.1-0.1-0.2-0.1
		c0.1,0,0.2-0.1,0.3-0.1c0.1-0.1,0.1-0.2,0.1-0.3c0-0.1,0-0.1,0-0.2c0-0.1-0.1-0.1-0.1-0.2c-0.1,0-0.1-0.1-0.2-0.1
		c-0.1,0-0.2,0-0.3,0l0,0v0.3c0,0,0.1,0,0.1,0c0.1,0,0.1,0,0.1,0c0,0,0,0,0,0.1c0,0,0,0,0,0.1c0,0.1,0,0.1-0.1,0.2
		c0,0-0.1,0-0.2,0.1V12.1z M175.4,13.5L175.4,13.5c-0.2,0-0.5,0-0.6-0.1c-0.2-0.1-0.3-0.2-0.5-0.3c-0.1-0.1-0.2-0.3-0.3-0.5
		c-0.1-0.2-0.1-0.4-0.1-0.6c0-0.2,0-0.4,0.1-0.6c0.1-0.2,0.2-0.4,0.3-0.5c0.2-0.1,0.3-0.2,0.5-0.3c0.2-0.1,0.4-0.1,0.6-0.1v0.3
		c-0.2,0-0.3,0-0.5,0.1c-0.2,0.1-0.3,0.2-0.4,0.3c-0.1,0.1-0.2,0.2-0.2,0.4c-0.1,0.1-0.1,0.3-0.1,0.5c0,0.2,0,0.4,0.1,0.5
		c0.1,0.2,0.2,0.3,0.2,0.4c0.1,0.1,0.2,0.2,0.4,0.3c0.1,0,0.3,0.1,0.5,0.1l0,0V13.5L175.4,13.5z M175.4,11H175c-0.1,0-0.1,0-0.1,0
		c0,0,0,0.1,0,0.1v1.4c0,0,0,0,0,0c0,0,0.1,0,0.2,0c0.1,0,0.1,0,0.2,0c0,0,0,0,0,0v-0.6h0.1c0,0,0.1,0,0.1,0v-0.3c0,0,0,0-0.1,0
		h-0.2v-0.4h0.2c0,0,0,0,0.1,0V11z"/>
</g>
</svg>
